<?xml version="1.0" standalone="no"?>
<!DOCTYPE svg PUBLIC "-//W3C//DTD SVG 20010904//EN"
 "http://www.w3.org/TR/2001/REC-SVG-20010904/DTD/svg10.dtd">
<svg version="1.0" xmlns="http://www.w3.org/2000/svg"
 width="1014.000000pt" height="324.000000pt" viewBox="0 0 1014.000000 324.000000"
 preserveAspectRatio="xMidYMid meet">
<metadata>
Created by potrace 1.15, written by Peter Selinger 2001-2017
</metadata>
<g transform="translate(0.000000,324.000000) scale(0.100000,-0.100000)"
fill="#000000" stroke="none">
<path d="M6676 2864 c-60 -19 -89 -37 -139 -83 -55 -51 -71 -82 -86 -166 -18
-100 14 -200 86 -273 67 -66 120 -86 233 -87 82 0 102 4 150 26 142 68 210
220 166 371 -21 72 -95 156 -170 193 -68 33 -170 41 -240 19z"/>
<path d="M4533 2743 l-83 -4 0 -1189 0 -1190 354 0 353 0 7 108 c3 59 6 413 6
787 -1 374 -1 717 0 763 l0 82 90 0 c101 0 150 -15 175 -53 25 -39 21 -122 -8
-152 -24 -24 -82 -45 -122 -45 l-35 0 0 -319 0 -318 108 -5 c128 -5 175 -24
180 -73 3 -22 6 -25 14 -14 7 10 8 9 3 -6 -4 -11 -7 -28 -7 -39 2 -54 -63 -96
-151 -96 -30 0 -75 -3 -101 -6 l-46 -7 0 -305 0 -305 183 6 c188 6 264 18 360
59 136 57 263 178 326 311 54 114 66 171 65 317 0 140 -16 215 -66 314 -38 75
-161 199 -238 240 -30 16 -57 30 -59 32 -2 2 27 33 63 70 77 77 125 152 157
244 33 93 34 293 2 395 -75 240 -278 368 -626 395 -112 9 -711 10 -904 3z"/>
<path d="M7407 2693 c-9 -103 -6 -1405 3 -1498 27 -282 106 -464 266 -616 155
-146 340 -225 571 -244 136 -11 123 -47 123 345 l0 338 -52 7 c-170 21 -235
95 -246 276 l-5 89 147 0 146 0 -2 343 -3 342 -141 3 -141 3 -6 196 c-4 108
-7 256 -7 328 l0 132 -142 6 c-79 4 -225 7 -325 7 l-181 0 -5 -57z"/>
<path d="M9195 2251 c-132 -22 -271 -72 -338 -121 -22 -16 -62 -50 -90 -77
-28 -26 -48 -40 -44 -31 3 10 3 27 -1 38 -7 19 -8 19 -35 -4 -59 -51 -93 -190
-66 -276 6 -19 19 -75 30 -123 36 -168 118 -281 254 -349 80 -41 218 -87 438
-147 222 -61 262 -73 309 -96 l37 -18 -4 -96 c-3 -78 -7 -98 -22 -109 -16 -12
-15 -13 12 -10 22 2 34 11 47 36 9 18 24 42 33 52 9 10 14 24 10 29 -14 23 14
10 29 -14 20 -31 21 -111 1 -159 -56 -134 -224 -206 -446 -193 -210 13 -343
99 -409 266 -11 29 -20 59 -20 69 -1 44 -11 46 -136 28 -205 -29 -187 -22
-180 -72 8 -65 62 -196 107 -263 127 -191 315 -277 629 -288 133 -4 170 -2
257 16 215 45 373 144 467 294 35 56 67 160 73 236 13 183 -60 337 -207 431
-79 51 -355 146 -610 210 -211 53 -310 103 -344 174 -39 83 -6 187 78 243 59
40 97 51 214 63 259 26 447 -73 487 -257 5 -27 11 -33 33 -33 42 0 266 32 274
39 11 10 -20 126 -52 196 -67 147 -192 239 -399 291 -105 27 -323 40 -416 25z"/>
<path d="M2990 2224 c-78 -14 -173 -41 -233 -65 -256 -103 -445 -330 -524
-627 -23 -85 -26 -118 -27 -267 -1 -174 4 -212 46 -345 67 -211 219 -396 419
-509 247 -139 615 -158 898 -45 63 25 144 66 168 86 7 5 18 6 25 2 7 -4 10 -4
6 1 -10 11 20 38 33 29 8 -4 9 -3 5 4 -6 10 10 17 35 14 3 -1 21 13 40 29 19
17 28 27 20 23 -10 -5 -12 -3 -7 5 5 7 10 10 13 7 9 -8 56 20 83 51 58 65 107
131 124 168 11 22 23 47 27 55 33 57 66 187 77 302 16 168 -20 432 -69 500
-10 15 -19 33 -19 39 0 21 -99 168 -145 214 -23 24 -66 45 -77 39 -8 -5 -9 -2
-5 10 4 10 3 15 -3 11 -5 -3 -46 23 -89 59 -94 76 -250 156 -366 187 -65 18
-114 22 -255 25 -96 1 -186 0 -200 -2z m286 -653 c54 -25 108 -82 142 -150 24
-50 27 -67 27 -156 0 -87 -3 -107 -26 -155 -54 -115 -134 -170 -244 -170 -57
0 -123 15 -135 30 -3 3 -16 14 -30 24 -14 10 -17 16 -8 13 12 -4 15 -2 12 8
-3 8 -13 11 -22 8 -13 -5 -14 -3 -5 7 8 9 5 20 -12 47 -34 49 -49 170 -34 258
8 40 36 105 56 127 9 10 12 18 7 18 -5 0 -1 5 8 10 10 6 15 19 13 30 -3 14 2
20 16 20 10 0 19 7 19 15 0 23 36 34 110 34 43 0 79 -6 106 -18z"/>
<path d="M245 2117 l-30 -25 1 -344 c0 -396 6 -436 79 -584 81 -165 421 -655
537 -775 54 -56 86 -65 263 -74 145 -8 302 6 365 31 49 20 131 114 283 327
180 250 297 440 339 549 28 75 41 346 28 590 -11 209 -21 266 -55 302 l-24 26
-298 -6 c-220 -5 -304 -10 -319 -19 -31 -19 -35 -62 -23 -199 6 -66 9 -209 7
-316 l-3 -196 -43 -88 c-51 -107 -146 -254 -169 -263 -11 -4 -26 5 -49 33 -43
51 -148 236 -167 294 -22 67 -30 311 -17 498 12 178 6 223 -33 243 -13 8 -130
13 -332 17 l-311 5 -29 -26z"/>
<path d="M6440 1268 c0 -458 3 -850 6 -871 l7 -37 323 0 324 0 0 870 0 870
-330 0 -330 0 0 -832z"/>
</g>
</svg>
